<svg xmlns="http://www.w3.org/2000/svg" xmlns:xlink="http://www.w3.org/1999/xlink" viewBox="0 0 2377.16 851.84">
  <defs>
    <radialGradient id="radial-gradient" cx="1019.3" cy="363.57" r="5.23" gradientTransform="translate(-1976.12 82.65) scale(2.67 1.8)" gradientUnits="userSpaceOnUse">
      <stop offset="0" stop-color="#fff" stop-opacity="0"/>
      <stop offset="0.44" stop-color="#dbedf3" stop-opacity="0.43"/>
      <stop offset="1" stop-color="#acd6e2"/>
    </radialGradient>
    <linearGradient id="linear-gradient" x1="1000" y1="991.91" x2="1000" y2="584.22" gradientTransform="matrix(1, 0, 0, 1, 0, 0)" xlink:href="#radial-gradient"/>
    <linearGradient id="linear-gradient-2" x1="149.62" y1="654.56" x2="149.62" y2="563.38" gradientTransform="matrix(1, 0, 0, 1, 0, 0)" xlink:href="#radial-gradient"/>
    <linearGradient id="linear-gradient-3" x1="1880.5" y1="674.11" x2="1880.5" y2="628.66" gradientTransform="matrix(1, 0, 0, 1, 0, 0)" xlink:href="#radial-gradient"/>
    <linearGradient id="linear-gradient-4" x1="1078.98" y1="631.48" x2="1078.98" y2="611.17" gradientTransform="matrix(1, 0, 0, 1, 0, 0)" xlink:href="#radial-gradient"/>
    <linearGradient id="linear-gradient-5" x1="1417.6" y1="653.59" x2="1417.6" y2="634.51" gradientTransform="matrix(1, 0, 0, 1, 0, 0)" xlink:href="#radial-gradient"/>
    <linearGradient id="linear-gradient-6" x1="706.14" y1="630.86" x2="706.14" y2="598.02" gradientTransform="matrix(1, 0, 0, 1, 0, 0)" xlink:href="#radial-gradient"/>
    <clipPath id="clip-path" transform="translate(147.83 -48.16)">
      <rect y="2" width="2000" height="898" fill="none"/>
    </clipPath>
    <linearGradient id="linear-gradient-7" x1="2298.23" y1="235.85" x2="2298.23" y2="45.44" gradientTransform="matrix(-1, 0, 0, 1, 2937.32, 0)" gradientUnits="userSpaceOnUse">
      <stop offset="0" stop-color="#fff" stop-opacity="0"/>
      <stop offset="0.15" stop-color="#fff" stop-opacity="0.13"/>
      <stop offset="0.49" stop-color="#fff" stop-opacity="0.46"/>
      <stop offset="0.99" stop-color="#fff" stop-opacity="0.99"/>
      <stop offset="1" stop-color="#fff"/>
    </linearGradient>
    <linearGradient id="linear-gradient-8" x1="2000" y1="440.6" x2="2000" y2="250.19" gradientTransform="matrix(1, 0, 0, 1, 0, 0)" xlink:href="#linear-gradient-7"/>
    <linearGradient id="linear-gradient-9" x1="121.51" y1="584.98" x2="121.51" y2="351.31" gradientTransform="matrix(1, 0, 0, 1, 0, 0)" xlink:href="#linear-gradient-7"/>
    <linearGradient id="linear-gradient-10" x1="804.98" y1="813.36" x2="142.33" y2="274.32" gradientUnits="userSpaceOnUse">
      <stop offset="0" stop-color="#fff" stop-opacity="0"/>
      <stop offset="0.14" stop-color="#fff" stop-opacity="0.01"/>
      <stop offset="0.26" stop-color="#fff" stop-opacity="0.06"/>
      <stop offset="0.39" stop-color="#fff" stop-opacity="0.13"/>
      <stop offset="0.51" stop-color="#fff" stop-opacity="0.24"/>
      <stop offset="0.63" stop-color="#fff" stop-opacity="0.37"/>
      <stop offset="0.75" stop-color="#fff" stop-opacity="0.54"/>
      <stop offset="0.86" stop-color="#fff" stop-opacity="0.73"/>
      <stop offset="0.98" stop-color="#fff" stop-opacity="0.95"/>
      <stop offset="1" stop-color="#fff"/>
    </linearGradient>
    <linearGradient id="linear-gradient-11" x1="1530.23" y1="940.43" x2="1331.97" y2="262.18" gradientTransform="matrix(0.99, 0.11, -0.11, 0.99, 66.14, -194.3)" xlink:href="#linear-gradient-10"/>
    <linearGradient id="linear-gradient-12" x1="1315.28" y1="284.81" x2="1502.72" y2="805.1" gradientTransform="matrix(0.99, 0.11, -0.11, 0.99, 66.14, -194.3)" gradientUnits="userSpaceOnUse">
      <stop offset="0" stop-color="#fff" stop-opacity="0"/>
      <stop offset="0.14" stop-color="#fefeff" stop-opacity="0.02"/>
      <stop offset="0.28" stop-color="#f9fcfd" stop-opacity="0.07"/>
      <stop offset="0.41" stop-color="#f3f9fb" stop-opacity="0.15"/>
      <stop offset="0.54" stop-color="#e9f4f7" stop-opacity="0.27"/>
      <stop offset="0.66" stop-color="#dceef3" stop-opacity="0.42"/>
      <stop offset="0.79" stop-color="#cde6ed" stop-opacity="0.61"/>
      <stop offset="0.91" stop-color="#bbdde7" stop-opacity="0.82"/>
      <stop offset="1" stop-color="#acd6e2"/>
    </linearGradient>
    <linearGradient id="linear-gradient-13" x1="1474.17" y1="243.82" x2="1483.53" y2="225.87" gradientTransform="matrix(1, -0.15, 0.25, 1.1, -674.12, 234.53)" gradientUnits="userSpaceOnUse">
      <stop offset="0" stop-color="#fff" stop-opacity="0"/>
      <stop offset="0.19" stop-color="#fcf4f1" stop-opacity="0.17"/>
      <stop offset="0.6" stop-color="#f5d8ce" stop-opacity="0.58"/>
      <stop offset="1" stop-color="#edbcab"/>
    </linearGradient>
    <radialGradient id="radial-gradient-2" cx="1711.21" cy="113.62" r="8.45" gradientTransform="matrix(2.67, -0.27, 0.66, 1.98, -3773.77, 503.86)" gradientUnits="userSpaceOnUse">
      <stop offset="0" stop-color="#fff" stop-opacity="0"/>
      <stop offset="0.21" stop-color="#fffefe" stop-opacity="0.01"/>
      <stop offset="0.35" stop-color="#fefcfb" stop-opacity="0.05"/>
      <stop offset="0.47" stop-color="#fdf8f6" stop-opacity="0.11"/>
      <stop offset="0.57" stop-color="#fbf2ee" stop-opacity="0.2"/>
      <stop offset="0.67" stop-color="#f9eae5" stop-opacity="0.31"/>
      <stop offset="0.76" stop-color="#f7e0d9" stop-opacity="0.46"/>
      <stop offset="0.85" stop-color="#f4d5cb" stop-opacity="0.62"/>
      <stop offset="0.93" stop-color="#f0c8bb" stop-opacity="0.81"/>
      <stop offset="1" stop-color="#edbcab"/>
    </radialGradient>
    <linearGradient id="linear-gradient-14" x1="2174.52" y1="184.56" x2="2161.44" y2="184.56" gradientTransform="matrix(-0.99, 0.12, 0.12, 0.99, 2998.03, -189.63)" gradientUnits="userSpaceOnUse">
      <stop offset="0" stop-color="#fff" stop-opacity="0"/>
      <stop offset="0.25" stop-color="#fffefe" stop-opacity="0.01"/>
      <stop offset="0.39" stop-color="#fefbfb" stop-opacity="0.05"/>
      <stop offset="0.51" stop-color="#fcf7f5" stop-opacity="0.11"/>
      <stop offset="0.61" stop-color="#f9f0ed" stop-opacity="0.2"/>
      <stop offset="0.7" stop-color="#f5e8e3" stop-opacity="0.31"/>
      <stop offset="0.79" stop-color="#f1ddd6" stop-opacity="0.45"/>
      <stop offset="0.86" stop-color="#ecd1c7" stop-opacity="0.62"/>
      <stop offset="0.94" stop-color="#e6c2b6" stop-opacity="0.81"/>
      <stop offset="1" stop-color="#e0b4a4"/>
    </linearGradient>
    <linearGradient id="linear-gradient-15" x1="1206.82" y1="210.04" x2="1216.19" y2="192.09" gradientTransform="matrix(-1, -0.15, -0.25, 1.1, 2341.6, 234.53)" xlink:href="#linear-gradient-13"/>
    <radialGradient id="radial-gradient-3" cx="1185.37" cy="43.1" r="8.45" gradientTransform="matrix(-2.67, -0.27, -0.66, 1.98, 4268.15, 503.86)" xlink:href="#radial-gradient-2"/>
    <linearGradient id="linear-gradient-16" x1="2448.46" y1="153.37" x2="2435.38" y2="153.37" gradientTransform="translate(-1330.54 -189.63) rotate(7.16)" xlink:href="#linear-gradient-14"/>
    <radialGradient id="radial-gradient-4" cx="-467.43" cy="94.32" r="7.49" gradientTransform="matrix(2.66, -0.08, 0.1, 2.25, 2184.03, -2.01)" xlink:href="#linear-gradient-14"/>
    <radialGradient id="radial-gradient-5" cx="-467.62" cy="88.78" r="7.49" gradientTransform="matrix(2.66, -0.08, 0.1, 2.14, 2185.46, 19.2)" xlink:href="#linear-gradient-14"/>
    <radialGradient id="radial-gradient-6" cx="-467.7" cy="88.94" r="4.09" gradientTransform="matrix(2.66, -0.08, 0.1, 2.14, 2185.46, 19.2)" xlink:href="#linear-gradient-14"/>
    <linearGradient id="linear-gradient-17" x1="-620.67" y1="192.38" x2="-616.84" y2="179.04" gradientTransform="translate(1560.6 32.23) rotate(-2.08)" xlink:href="#linear-gradient-7"/>
    <linearGradient id="linear-gradient-18" x1="-894.3" y1="64.96" x2="-905.41" y2="26.7" gradientTransform="matrix(0.96, -0.26, 0.26, 0.96, 1804.19, -44.84)" xlink:href="#radial-gradient-2"/>
    <radialGradient id="radial-gradient-7" cx="1106.53" cy="95.46" r="36.94" gradientTransform="translate(-1976.12 82.65) scale(2.67 1.8)" xlink:href="#linear-gradient-14"/>
    <linearGradient id="linear-gradient-19" x1="977.66" y1="285.74" x2="974.19" y2="268.71" gradientUnits="userSpaceOnUse">
      <stop offset="0" stop-color="#fff" stop-opacity="0"/>
      <stop offset="0.11" stop-color="#fefdfd" stop-opacity="0.02"/>
      <stop offset="0.24" stop-color="#fcf8f7" stop-opacity="0.09"/>
      <stop offset="0.39" stop-color="#f9f0ec" stop-opacity="0.21"/>
      <stop offset="0.55" stop-color="#f4e4de" stop-opacity="0.36"/>
      <stop offset="0.71" stop-color="#edd4cb" stop-opacity="0.57"/>
      <stop offset="0.88" stop-color="#e6c2b5" stop-opacity="0.81"/>
      <stop offset="1" stop-color="#e0b4a4"/>
    </linearGradient>
    <radialGradient id="radial-gradient-8" cx="-447.63" cy="95.09" r="7.49" gradientTransform="matrix(2.66, -0.08, 0.1, 2.25, 2184.03, -2.01)" xlink:href="#linear-gradient-14"/>
    <radialGradient id="radial-gradient-9" cx="-447.82" cy="89.59" r="7.49" gradientTransform="matrix(2.66, -0.08, 0.1, 2.14, 2185.46, 19.2)" xlink:href="#linear-gradient-14"/>
    <radialGradient id="radial-gradient-10" cx="-447.9" cy="89.75" r="4.09" gradientTransform="matrix(2.66, -0.08, 0.1, 2.14, 2185.46, 19.2)" xlink:href="#linear-gradient-14"/>
    <linearGradient id="linear-gradient-22" x1="-567.86" y1="194.49" x2="-564.03" y2="181.16" gradientTransform="translate(1560.6 32.23) rotate(-2.08)" xlink:href="#linear-gradient-7"/>
    <linearGradient id="linear-gradient-23" x1="608.36" y1="477.14" x2="597.25" y2="438.87" gradientTransform="matrix(-0.96, -0.26, -0.26, 0.96, 1704.38, -44.84)" xlink:href="#radial-gradient-2"/>
    <linearGradient id="linear-gradient-24" x1="967.84" y1="397.61" x2="966.89" y2="368.22" xlink:href="#linear-gradient-19"/>
    <linearGradient id="linear-gradient-25" x1="965.39" y1="436.99" x2="969.17" y2="412.52" xlink:href="#linear-gradient-19"/>
    <linearGradient id="linear-gradient-26" x1="894.37" y1="360.12" x2="873.61" y2="359.14" xlink:href="#linear-gradient-19"/>
    <linearGradient id="linear-gradient-27" x1="797.04" y1="352.35" x2="796.36" y2="341.29" xlink:href="#linear-gradient-19"/>
    <linearGradient id="linear-gradient-28" x1="2261.29" y1="360.12" x2="2240.54" y2="359.14" gradientTransform="matrix(-1, 0, 0, 1, 3302.92, 0)" xlink:href="#linear-gradient-19"/>
    <linearGradient id="linear-gradient-29" x1="2163.97" y1="352.35" x2="2163.28" y2="341.29" gradientTransform="matrix(-1, 0, 0, 1, 3302.92, 0)" xlink:href="#linear-gradient-19"/>
    <radialGradient id="radial-gradient-11" cx="1091.83" cy="282.81" r="97.33" gradientTransform="translate(-1976.12 82.65) scale(2.67 1.8)" gradientUnits="userSpaceOnUse">
      <stop offset="0" stop-color="#fff" stop-opacity="0"/>
      <stop offset="0.12" stop-color="#fffefd" stop-opacity="0.02"/>
      <stop offset="0.25" stop-color="#fdfbf8" stop-opacity="0.08"/>
      <stop offset="0.38" stop-color="#fbf6f0" stop-opacity="0.17"/>
      <stop offset="0.52" stop-color="#f9efe4" stop-opacity="0.3"/>
      <stop offset="0.67" stop-color="#f5e6d5" stop-opacity="0.48"/>
      <stop offset="0.81" stop-color="#f1dbc3" stop-opacity="0.69"/>
      <stop offset="0.96" stop-color="#eccead" stop-opacity="0.93"/>
      <stop offset="1" stop-color="#eacaa7"/>
    </radialGradient>
    <radialGradient id="radial-gradient-12" cx="1177.09" cy="361.93" r="182.84" gradientTransform="translate(-1976.12 82.65) scale(2.67 1.8)" gradientUnits="userSpaceOnUse">
      <stop offset="0.44" stop-color="#fff" stop-opacity="0"/>
      <stop offset="0.65" stop-color="#fff" stop-opacity="0.01"/>
      <stop offset="0.72" stop-color="#fff" stop-opacity="0.03"/>
      <stop offset="0.78" stop-color="#fff" stop-opacity="0.08"/>
      <stop offset="0.82" stop-color="#fff" stop-opacity="0.15"/>
      <stop offset="0.86" stop-color="#fff" stop-opacity="0.23"/>
      <stop offset="0.89" stop-color="#fff" stop-opacity="0.34"/>
      <stop offset="0.92" stop-color="#fff" stop-opacity="0.47"/>
      <stop offset="0.95" stop-color="#fff" stop-opacity="0.61"/>
      <stop offset="0.97" stop-color="#fff" stop-opacity="0.78"/>
      <stop offset="1" stop-color="#fff" stop-opacity="0.96"/>
      <stop offset="1" stop-color="#fff"/>
    </radialGradient>
    <linearGradient id="linear-gradient-30" x1="2315.45" y1="998.95" x2="2315.45" y2="560.04" gradientTransform="matrix(-1, 0, 0, 1, 3315.45, 0)" xlink:href="#radial-gradient"/>
    <linearGradient id="linear-gradient-31" x1="1000" y1="560.58" x2="1000" y2="909.65" gradientUnits="userSpaceOnUse">
      <stop offset="0" stop-color="#fff" stop-opacity="0"/>
      <stop offset="0.09" stop-color="#fcfefe" stop-opacity="0.03"/>
      <stop offset="0.24" stop-color="#f5fafb" stop-opacity="0.12"/>
      <stop offset="0.41" stop-color="#e9f4f7" stop-opacity="0.27"/>
      <stop offset="0.6" stop-color="#d8ecf1" stop-opacity="0.47"/>
      <stop offset="0.81" stop-color="#c2e1ea" stop-opacity="0.73"/>
      <stop offset="1" stop-color="#acd6e2"/>
    </linearGradient>
    <linearGradient id="linear-gradient-33" x1="1000" y1="687.05" x2="1000" y2="540.77" gradientTransform="matrix(1, 0, 0, 1, 0, 0)" xlink:href="#radial-gradient"/>
    <radialGradient id="radial-gradient-13" cx="861.38" cy="292.82" r="8.36" xlink:href="#radial-gradient"/>
    <radialGradient id="radial-gradient-14" cx="1062.99" cy="269.09" r="8.36" xlink:href="#radial-gradient"/>
    <radialGradient id="radial-gradient-15" cx="1166.44" cy="312.15" r="8.36" xlink:href="#radial-gradient"/>
    <radialGradient id="radial-gradient-16" cx="1354.05" cy="275.27" r="8.36" xlink:href="#radial-gradient"/>
    <radialGradient id="radial-gradient-17" cx="1441.17" cy="239.13" r="5.23" xlink:href="#radial-gradient"/>
    <radialGradient id="radial-gradient-18" cx="823.72" cy="284.45" r="4.8" xlink:href="#radial-gradient"/>
    <radialGradient id="radial-gradient-19" cx="1229.43" cy="246.76" r="4.8" xlink:href="#radial-gradient"/>
  </defs>
  <title>Endless-Constellation</title>
  <g style="isolation: isolate">
    <g id="Слой_1" data-name="Слой 1">
      <g id="WATER_BACK" data-name="WATER BACK">
        <path d="M752,737.86c0,5.17-6.22,9.35-13.9,9.35s-13.88-4.18-13.88-9.35,6.22-9.36,13.88-9.36S752,732.69,752,737.86Z" transform="translate(147.83 -48.16)" fill="url(#radial-gradient)" style="mix-blend-mode: multiply"/>
        <g opacity="0.5">
          <path d="M0,900V557.37s82.67,10.12,173.33,45.53,117.34,35.41,216,25.29,208-50.58,296-22.76S844.66,623.13,929,613s207,5.06,316.33,27.82,184-7.59,256-7.59,165.34,27.82,237.34,30.35S1941.33,651,2000,625.66V900Z" transform="translate(147.83 -48.16)" fill="url(#linear-gradient)" style="mix-blend-mode: multiply"/>
          <path d="M155.16,602.9c64,24.53,96.64,32.06,144.08,31-38.8-.92-70.34-9.31-125.91-31C82.67,567.49,0,557.37,0,557.37v3.26C30.76,565.9,91,578.28,155.16,602.9Z" transform="translate(147.83 -48.16)" fill="url(#linear-gradient-2)" style="mix-blend-mode: multiply"/>
        </g>
        <g>
          <path d="M2000,631.33v-5.67c-53,22.86-164.82,37.45-239,38.18C1830,664.45,1938.83,652,2000,631.33Z" transform="translate(147.83 -48.16)" fill="url(#linear-gradient-3)" style="mix-blend-mode: multiply"/>
          <path d="M1170.51,626.9c-63.55-10.42-127.65-17.16-183.06-17.07C1043.1,610,1107.08,616.69,1170.51,626.9Z" transform="translate(147.83 -48.16)" fill="url(#linear-gradient-4)" style="mix-blend-mode: multiply"/>
          <path d="M1504.45,633.29c-1,0-2.09,0-3.12,0-51.57,0-104.52,15.57-170.59,16C1398.13,649.26,1452.09,633.85,1504.45,633.29Z" transform="translate(147.83 -48.16)" fill="url(#linear-gradient-5)" style="mix-blend-mode: multiply"/>
          <path d="M676.49,605.43c44.46,13.8,84.73,18.26,124.52,18-36.94-.29-74.48-5-115.68-18C662,598,637.06,595.5,611.27,595.9,633.9,596.25,655.78,599,676.49,605.43Z" transform="translate(147.83 -48.16)" fill="url(#linear-gradient-6)" style="mix-blend-mode: multiply"/>
        </g>
      </g>
      <g id="CLOUDS">
        <g clip-path="url(#clip-path)">
          <g>
            <path d="M868.43,156.83H409.76s33.34-13.47,94.67-12.57c0,0-29.33-47.6,13.33-47.6S604.43,120,604.43,120s-8-72.74,53.33-71.84,88,67.35,88,67.35,16-40.41,53.34-39.51-13.34,47.59-13.34,47.59,50.67-8.08,72-1.79-18.66,23.35-18.66,23.35S857.76,146.05,868.43,156.83Z" transform="translate(147.83 -48.16)" fill="url(#linear-gradient-7)"/>
            <path d="M1770.67,361.57h458.66S2196,348.1,2134.67,349c0,0,29.33-47.59-13.34-47.59s-86.66,23.35-86.66,23.35,8-72.74-53.34-71.84-88,67.35-88,67.35-16-40.41-53.33-39.52,13.33,47.6,13.33,47.6-50.66-8.08-72-1.8S1800,349.9,1800,349.9,1781.33,350.8,1770.67,361.57Z" transform="translate(147.83 -48.16)" fill="url(#linear-gradient-8)"/>
            <path d="M-147.83,488H390.85s-88.78-16-162.77-17.82c0,0,38.34-74-38.93-71.77S59.94,441.87,59.94,441.87-14.73,352.5-89.39,354.68s51.94,116.07,51.94,116.07S-112.12,461.71-147.83,488Z" transform="translate(147.83 -48.16)" fill="url(#linear-gradient-9)"/>
          </g>
        </g>
      </g>
      <g id="SUN">
        <path d="M1857.87,141.89c0,42.75-51.45,77.4-114.92,77.4S1628,184.64,1628,141.89,1679.49,64.5,1743,64.5,1857.87,99.15,1857.87,141.89Z" transform="translate(147.83 -48.16)" fill="#fff2c7" opacity="0.6"/>
      </g>
      <g id="PAGE_NOT_FOUND" data-name="PAGE NOT FOUND">
        <g>
          <path d="M462.23,142.45a150.63,150.63,0,0,1,25.9-5c10.36-1.18,22-.09,30.56,6.54,6.32,4.89,10.59,12.94,11.59,23.2,1,10.43-1,18.92-5.64,25.42-7,9.82-18.89,14.75-30.57,15.92a42.85,42.85,0,0,1-10.93.13q2.49,23.07,5,46.14c-5.33.57-8,.86-13.32,1.45Q468.52,199.33,462.23,142.45Zm19.6,54a41,41,0,0,0,11.28,0c13.89-1.51,25.09-13.05,23.7-27.32-1.32-13.52-14.25-21.34-27.12-20-5.93.61-10.41,1.62-12.68,2.56Q479.43,174.11,481.83,196.49Z" transform="translate(147.83 -48.16)" fill="#1c7084"/>
          <path d="M556.72,211.22q-3.69,18.65-7.33,37.3c-5.51.52-8.27.79-13.79,1.34q11.92-59.42,24.52-118.69c6.58-.6,9.87-.9,16.46-1.48q23.07,56.06,45.5,112.37c-5.71.47-8.56.7-14.27,1.19q-7-17.7-14.18-35.36Q575.17,209.5,556.72,211.22Zm33.11-14.72q-6.57-16.17-13.18-32.31c-3-7.32-5.18-14-7.35-20.56l-.31,0c-.94,7-2,14.16-3.41,21.37q-3.62,17.14-7.16,34.31Q574.13,197.86,589.83,196.5Z" transform="translate(147.83 -48.16)" fill="#1c7084"/>
          <path d="M713.38,230.23c-9.83,4.68-20.9,8.12-31.37,8.48-14.36.5-28.29-1.93-39.85-12.39-11.4-10.32-16.49-27-17.92-41.85-3.19-33,18.87-61.66,52.48-63.91,12.21-.82,22,1.44,26.71,3.54l-2.5,12.39c-5.81-2.37-13.18-3.94-23.66-3.39-26.3,1.36-40.71,25.09-38.81,49.56,1.81,23.37,17.84,45.92,43.61,43.64,8.6-.76,14.68-2.38,17.64-4.3q-1.14-17.24-2.29-34.47c-8.49.57-12.74.86-21.23,1.46l-.85-12q17.24-1.2,34.48-2.32Q711.61,202.45,713.38,230.23Z" transform="translate(147.83 -48.16)" fill="#1c7084"/>
          <path d="M785.05,176.92q-20.34,1-40.67,2.19l2.4,41.69q22.49-1.28,45-2.4c.24,5,.36,7.52.61,12.53q-29.11,1.47-58.22,3.18l-7-115.62q28.58-1.68,57.16-3.13c.25,5,.37,7.52.62,12.53q-21.71,1.1-43.4,2.32,1.05,18.27,2.11,36.54,20.37-1.17,40.76-2.19C784.68,169.51,784.8,172,785.05,176.92Z" transform="translate(147.83 -48.16)" fill="#1c7084"/>
          <path d="M842.3,228.73Q840,170.86,837.75,113c6-.24,9-.35,14.93-.57q18,28.65,35.7,57.45A367.07,367.07,0,0,1,908.18,207l.3-.18c-1.48-15.84-2.3-31.64-2.82-47.54q-.64-24.22-1.3-48.45l12.89-.33q1.41,57.9,2.83,115.8l-13.53.34q-17.29-29-34.85-57.74a399.64,399.64,0,0,1-21-37.95l-.47.19c1.42,15.86,2.31,31.78,2.86,47.7l1.83,49.46C849.86,228.43,847.34,228.53,842.3,228.73Z" transform="translate(147.83 -48.16)" fill="#1c7084"/>
          <path d="M1031.82,165.6c-1.08,29.05-14.15,60.12-47.92,61.37-31.32,1.16-47.25-31.34-47.81-58-.59-27.94,15.15-62,47.92-61.63C1015.15,107.74,1032.88,137.2,1031.82,165.6Zm-81.28,2.76c.37,19.68,10.26,46.67,34,46.4,24.39-.27,33.15-28.37,33-48.41s-10-47.06-34-46.79C958.72,119.83,950.14,148,950.54,168.36Z" transform="translate(147.83 -48.16)" fill="#1c7084"/>
          <path d="M1065.56,121.61q-16.08-.06-32.15,0c0-5.09,0-7.63,0-12.72q39.21-.06,78.43.37c-.07,5.09-.1,7.63-.16,12.72q-16.14-.18-32.3-.29-.3,51.54-.61,103.1l-13.53-.06Q1065.38,173.17,1065.56,121.61Z" transform="translate(147.83 -48.16)" fill="#1c7084"/>
          <path d="M1156.9,110q28.53.63,57,1.48c-.16,5-.24,7.52-.39,12.54q-21.63-.66-43.27-1.18-.43,19.25-.88,38.49,19.83.45,39.68,1.06c-.15,4.95-.23,7.42-.38,12.37q-19.8-.6-39.59-1.06-.6,26.2-1.21,52.4l-13.37-.29Z" transform="translate(147.83 -48.16)" fill="#1c7084"/>
          <path d="M1321,172.66c-2.67,29-17.45,59.26-51.25,58.65-31.34-.55-45.47-33.86-44.57-60.51.94-28,18.53-61.12,51.24-58.92C1307.47,114,1323.58,144.35,1321,172.66Zm-81.36-1.7c-.7,19.69,7.71,47.16,31.4,48.2,24.38,1.06,34.67-26.51,35.63-46.53s-7.39-47.53-31.4-48.58C1250.45,123,1240.34,150.57,1239.61,171Z" transform="translate(147.83 -48.16)" fill="#1c7084"/>
          <path d="M1355.31,117.75l-4,68.45c-1.15,15.29,3.1,37.1,22,38.34,19.57,1.28,26.92-19,27.72-35.23q2.3-34.2,4.6-68.41c5.52.37,8.29.56,13.81.95l-4.71,67.37c-1,25.35-15.5,49-42.64,47.47s-35.71-27.39-34.43-51.6q1.88-34.07,3.76-68.12C1347,117.27,1349.78,117.43,1355.31,117.75Z" transform="translate(147.83 -48.16)" fill="#1c7084"/>
          <path d="M1434.61,239.06q4.29-57.75,8.59-115.5c6,.44,8.94.67,14.9,1.13q14.64,30.5,29,61.12a368,368,0,0,1,15.49,39.09l.32-.14c.32-15.91,1.29-31.7,2.59-47.56q2.1-24.13,4.19-48.28l12.86,1.13-10.32,115.37-13.49-1.19q-13.92-30.72-28.12-61.33A400,400,0,0,1,1454,142.82l-.48.13c-.39,15.93-1.31,31.84-2.57,47.72q-1.89,24.68-3.79,49.35Z" transform="translate(147.83 -48.16)" fill="#1c7084"/>
          <path d="M1546.22,133.78a161,161,0,0,1,29.21.4c14.74,1.57,31.79,6.37,41.21,18.78,9.12,12,11.92,28.44,10.27,42.95-1.75,15.44-8.08,32.15-19.84,43.13-12.73,11.89-31.62,13-47.42,11.87a159.93,159.93,0,0,1-24.08-3.7ZM1550,237a75,75,0,0,0,13.43,2.18c28.19,2.67,46.3-17.56,49.32-44.31,2.86-25.32-11.86-46.19-37.87-48.85a69.58,69.58,0,0,0-16.1,0Q1554.4,191.52,1550,237Z" transform="translate(147.83 -48.16)" fill="#1c7084"/>
        </g>
      </g>
      <g id="_404" data-name="404">
        <g>
          <path d="M719.44,550.08l10.79,117-77.44.37L658.9,759,497.23,770.08,491,668.52l-203.63,1.41L254,359.24l162.13-14.52L439.6,556.83l44.07-1L478,460.4,635.59,422l8.88,130Z" transform="translate(147.83 -48.16)" fill="#367b96"/>
          <path d="M719.44,538l10.79,117-77.44.36,6.11,91.5L497.23,758,491,656.46l-203.63,1.4L254,347.18l162.13-14.52,23.43,212.1,44.07-1L478,448.34,635.59,410l8.88,130Z" transform="translate(147.83 -48.16)" fill="#6ed5e0"/>
          <g style="mix-blend-mode: overlay">
            <path d="M719.44,538l10.79,117-77.44.36,6.11,91.5L497.23,758,491,656.46l-203.63,1.4L254,347.18l162.13-14.52,23.43,212.1,44.07-1L478,448.34,635.59,410l8.88,130Z" transform="translate(147.83 -48.16)" fill="url(#linear-gradient-10)"/>
          </g>
        </g>
        <g>
          <path d="M1659.41,598.19,1625,712.53l-74.28-14.26-29.13,89-159-19.82,32.84-98.66-195.49-37.09,86.93-304.48,160.76,16.67-58.66,208,42.57,7.35,31-92.66,165.55-7.08L1586.9,585.89Z" transform="translate(147.83 -48.16)" fill="#367b96"/>
          <path d="M1661.34,586.26l-34.41,114.33-74.28-14.26-29.13,89-159-19.83,32.84-98.66-195.49-37.09,86.94-304.48,160.75,16.67-58.66,208,42.57,7.36,31-92.67L1630,447.53,1588.84,574Z" transform="translate(147.83 -48.16)" fill="#6ed5e0"/>
          <g style="mix-blend-mode: overlay">
            <path d="M1661.34,586.26l-34.41,114.33-74.28-14.26-29.13,89-159-19.83,32.84-98.66-195.49-37.09,86.94-304.48,160.75,16.67-58.66,208,42.57,7.36,31-92.67L1630,447.53,1588.84,574Z" transform="translate(147.83 -48.16)" fill="url(#linear-gradient-11)"/>
          </g>
          <g style="mix-blend-mode: multiply">
            <path d="M1661.34,586.26l-34.41,114.33-74.28-14.26-29.13,89-159-19.83,32.84-98.66-195.49-37.09,86.94-304.48,160.75,16.67-58.66,208,42.57,7.36,31-92.67L1630,447.53,1588.84,574Z" transform="translate(147.83 -48.16)" fill="url(#linear-gradient-12)"/>
          </g>
        </g>
        <g>
          <g>
            <path d="M909.89,483.38,890.6,461.82s-60.05,30.64-87.38,68.11h0s-19.56,8-26.42,8.56.87,3,.87,3a2.35,2.35,0,0,0,1.78,2.32,33.59,33.59,0,0,0,4.48.32s-.55,1.93.68,2.07,3.67.26,3.67.26a2.83,2.83,0,0,0,2,3.4c2.62.83,5.49-3,5.49-3s4.75.31,6.26-1.37a10,10,0,0,1,7.49-3.32c3.65-.11,1.66-5.7,1.66-5.7s2-.18,1.23-2.28h0C823.22,525.76,868.06,492.49,909.89,483.38Z" transform="translate(147.83 -48.16)" fill="#ffbca1"/>
            <path d="M1024.8,482.94l20.32-21.12s58.52,31.95,84,70h0s19.17,8.42,26,9.14-1,3-1,3a2.41,2.41,0,0,1-1.89,2.28,33.88,33.88,0,0,1-4.5.22s.45,1.94-.78,2.06-3.68.17-3.68.17a2.89,2.89,0,0,1-2.15,3.35c-2.66.78-5.33-3.11-5.33-3.11s-4.77.22-6.2-1.5a9.71,9.71,0,0,0-7.32-3.49c-3.64-.19-1.37-5.73-1.37-5.73s-2-.22-1.13-2.31h0C1109.34,527.22,1078.31,495.47,1024.8,482.94Z" transform="translate(147.83 -48.16)" fill="#ffbca1"/>
            <path d="M1056.62,466.08l4.59-2.43c-19.6-8.47-46.07-16.46-46.07-16.46L968.41,452l-46.72-4.76s-26.48,8-46.08,16.46l4.59,2.43-4.59,1.21h9.8l-5.82,2.42h5.51l-.92,3.87h6.13l-3.37,7h6.43L890,482.29l8.65-1.93-6.2,5.81,6.2-.73L897.37,490s23-10.87,71-10.87,71,10.87,71,10.87l-1.28-4.58,6.2.73-6.2-5.81,8.65,1.93-3.37-1.69h6.43l-3.36-7h6.12l-.92-3.87h5.51l-5.82-2.42h9.8Z" transform="translate(147.83 -48.16)" fill="#b57443"/>
            <path d="M1024.5,439.49,968,444.21h0l-56.52-4.72-2.3.84,2.3,8.24,1.65.72s15,4.76,54.87,4.76,54.87-4.76,54.87-4.76l1.66-.72,2.3-8.24Z" transform="translate(147.83 -48.16)" fill="#7c512a"/>
            <path d="M1024.5,439.49,968,444.21h0l-56.52-4.72-2.3.84.29,1.06,1.43.65s15.57,5.15,57.1,5.15h0c41.53,0,57.11-5.15,57.11-5.15l1.43-.65.29-1.06Z" transform="translate(147.83 -48.16)" fill="#ce976a"/>
            <path d="M1017.81,375s10.42-39.7,5-41.63-45.55-6.54-45.55-6.54c-2.43-3.15,0-11.13,0-11.13H958.66s2.42,8,0,11.13c0,0-40.17,4.6-45.56,6.54s5,41.63,5,41.63-9,46.16-6.58,65.53c0,0,9.32,5.48,56.41,5.48s56.42-5.48,56.42-5.48C1026.78,421.13,1017.81,375,1017.81,375Z" transform="translate(147.83 -48.16)" fill="#ffbca1"/>
            <g>
              <g>
                <path d="M888.87,263.24c3,8.85-8.43,16-20.37,17.25s-24-5-26.94-13.84,4.35-17,16.28-18.23S885.92,254.38,888.87,263.24Z" transform="translate(147.83 -48.16)" fill="#ffbca1"/>
                <path d="M888.87,263.24c3,8.85-8.43,16-20.37,17.25s-24-5-26.94-13.84,4.35-17,16.28-18.23S885.92,254.38,888.87,263.24Z" transform="translate(147.83 -48.16)" fill="#ffbca1"/>
                <path d="M856.83,265.11s-7,2.8-2.86,4.72,13.31,1.54,19.33.4c0,0-6,1.84-6.61-2.16,0,0,1.44-3.95,3.08-4.6C869.77,263.47,861.12,263.61,856.83,265.11Z" transform="translate(147.83 -48.16)" fill="url(#linear-gradient-13)" style="mix-blend-mode: multiply"/>
                <path d="M888.87,263.24c3,8.85-8.43,16-20.37,17.25s-24-5-26.94-13.84,4.35-17,16.28-18.23S885.92,254.38,888.87,263.24Z" transform="translate(147.83 -48.16)" fill="url(#radial-gradient-2)" style="mix-blend-mode: multiply"/>
                <path d="M888.87,263.24c3,8.85-8.43,16-20.37,17.25s-24-5-26.94-13.84,4.35-17,16.28-18.23S885.92,254.38,888.87,263.24Z" transform="translate(147.83 -48.16)" fill="url(#linear-gradient-14)" style="mix-blend-mode: multiply"/>
                <path d="M852.93,267.65l.23-.16.7-.42a21.12,21.12,0,0,1,2.66-1.28c.55-.25,1.24-.43,1.88-.67s1.44-.4,2.23-.53c.39-.07.78-.17,1.2-.21s.84-.08,1.27-.13a9.33,9.33,0,0,1,1.31-.07l1.29,0c.9.07,1.79.06,2.67.18s1.76.19,2.58.39,1.66.34,2.44.49,1.48.42,2.16.6c.34.08.66.18.94.25l.88.29,1.39.45,1.27.37-1.08-.62c-.35-.2-.76-.43-1.26-.69l-.79-.42-.94-.39c-.66-.27-1.37-.56-2.15-.86s-1.63-.49-2.51-.73a9.77,9.77,0,0,0-1.37-.29l-1.43-.25c-1-.15-2-.16-3-.25-.49,0-1,0-1.46.05a11,11,0,0,0-1.45.12c-.48.05-.94.13-1.39.2s-.9.21-1.32.31a14.74,14.74,0,0,0-2.3.78,14.11,14.11,0,0,0-1.83.95,9.85,9.85,0,0,0-1.35,1,9.37,9.37,0,0,0-.88.82A4.29,4.29,0,0,0,852.93,267.65Z" transform="translate(147.83 -48.16)" fill="#e58563"/>
                <path d="M868.26,263.68a12.7,12.7,0,0,0-1.22,2,6.85,6.85,0,0,0-.67,2.2,2.53,2.53,0,0,0,.24,1.37,2.47,2.47,0,0,0,1.37,1.11,6.24,6.24,0,0,0,1.88.32,5.39,5.39,0,0,0,.9,0,6.09,6.09,0,0,0,.85-.07,23.62,23.62,0,0,0,2.94-.49c.85-.2,1.52-.37,2-.51l.76-.2-.76.18-2,.42a26.54,26.54,0,0,1-2.94.38l-.84,0a8.43,8.43,0,0,1-.87,0,5,5,0,0,1-1.65-.33,1.84,1.84,0,0,1-1-.9,2.3,2.3,0,0,1-.11-1.16,6.4,6.4,0,0,1,.78-2,10.39,10.39,0,0,1,.93-1.33,5.87,5.87,0,0,1,.39-.48Z" transform="translate(147.83 -48.16)" fill="#e58563"/>
              </g>
              <g>
                <path d="M1054.33,266.42c-2.94,8.86,8.43,16,20.37,17.26s24-5,27-13.84-4.35-17-16.29-18.23S1057.29,257.56,1054.33,266.42Z" transform="translate(147.83 -48.16)" fill="#ffbca1"/>
                <path d="M1054.33,266.42c-2.94,8.86,8.43,16,20.37,17.26s24-5,27-13.84-4.35-17-16.29-18.23S1057.29,257.56,1054.33,266.42Z" transform="translate(147.83 -48.16)" fill="#ffbca1"/>
                <path d="M1086.38,268.3s6.95,2.8,2.85,4.72-13.3,1.53-19.32.4c0,0,6,1.83,6.61-2.16,0,0-1.45-4-3.09-4.6C1073.43,266.66,1082.08,266.8,1086.38,268.3Z" transform="translate(147.83 -48.16)" fill="url(#linear-gradient-15)" style="mix-blend-mode: multiply"/>
                <path d="M1054.33,266.42c-2.94,8.86,8.43,16,20.37,17.26s24-5,27-13.84-4.35-17-16.29-18.23S1057.29,257.56,1054.33,266.42Z" transform="translate(147.83 -48.16)" fill="url(#radial-gradient-3)" style="mix-blend-mode: multiply"/>
                <path d="M1054.33,266.42c-2.94,8.86,8.43,16,20.37,17.26s24-5,27-13.84-4.35-17-16.29-18.23S1057.29,257.56,1054.33,266.42Z" transform="translate(147.83 -48.16)" fill="url(#linear-gradient-16)" style="mix-blend-mode: multiply"/>
                <path d="M1090.28,270.84l-.23-.16-.71-.43a23.37,23.37,0,0,0-2.65-1.27c-.55-.25-1.24-.43-1.88-.68s-1.44-.4-2.24-.53c-.39-.06-.78-.16-1.2-.2s-.83-.08-1.27-.14a10.85,10.85,0,0,0-1.3-.07c-.43,0-.86,0-1.3,0-.9.07-1.78.05-2.67.18s-1.76.18-2.57.38-1.66.34-2.44.5-1.49.41-2.16.59l-1,.26-.87.28-1.39.46-1.27.37s.38-.23,1.08-.62q.51-.3,1.26-.69c.25-.13.52-.27.78-.43s.62-.25.94-.38c.67-.28,1.37-.57,2.16-.86s1.62-.49,2.51-.73a11.43,11.43,0,0,1,1.37-.3c.47-.09,1-.16,1.43-.24,1-.16,2-.17,3-.25.49,0,1,0,1.47.05a9.79,9.79,0,0,1,1.45.11l1.39.2c.46.07.89.21,1.31.31a16.7,16.7,0,0,1,2.3.78,14.9,14.9,0,0,1,1.84.95,11.93,11.93,0,0,1,1.35,1,9.24,9.24,0,0,1,.88.83A5,5,0,0,1,1090.28,270.84Z" transform="translate(147.83 -48.16)" fill="#e58563"/>
                <path d="M1075,266.87a11.71,11.71,0,0,1,1.21,2,6.47,6.47,0,0,1,.68,2.2,2.7,2.7,0,0,1-.24,1.36,2.5,2.5,0,0,1-1.38,1.12,5.92,5.92,0,0,1-1.88.31,6.61,6.61,0,0,1-.89,0,8.31,8.31,0,0,1-.86-.07,23.81,23.81,0,0,1-2.94-.5c-.84-.19-1.51-.36-2-.5l-.75-.2.76.18c.5.1,1.18.25,2,.41a29,29,0,0,0,2.94.39c.28,0,.56,0,.83,0a6.47,6.47,0,0,0,.88,0,5.27,5.27,0,0,0,1.65-.34,1.78,1.78,0,0,0,1-.9,2.17,2.17,0,0,0,.12-1.15,6.46,6.46,0,0,0-.79-2,12.91,12.91,0,0,0-.92-1.34,5.87,5.87,0,0,0-.39-.48Z" transform="translate(147.83 -48.16)" fill="#e58563"/>
              </g>
              <path d="M1071.9,247.64c0,37.11-27.62,59.6-99.76,59.6-75.52,0-99.76-22.49-99.76-59.6s25.93-66.45,99.76-67.18C1055,179.64,1071.9,210.54,1071.9,247.64Z" transform="translate(147.83 -48.16)" fill="#ffbca1"/>
              <g>
                <path d="M968,245.9c.42,9.31-8.19,17.1-19.2,17.43s-20.32-7-20.73-16.27,8.18-17.1,19.2-17.43S967.54,236.59,968,245.9Z" transform="translate(147.83 -48.16)" fill="url(#radial-gradient-4)" style="mix-blend-mode: multiply"/>
                <path d="M967.91,245.09c.4,8.86-8.2,16.31-19.23,16.62s-20.3-6.6-20.7-15.45,8.23-16.3,19.25-16.63S967.51,236.23,967.91,245.09Z" transform="translate(147.83 -48.16)" fill="#fff"/>
                <path d="M967.91,245.09c.4,8.86-8.2,16.31-19.23,16.62s-20.3-6.6-20.7-15.45,8.23-16.3,19.25-16.63S967.51,236.23,967.91,245.09Z" transform="translate(147.83 -48.16)" fill="url(#radial-gradient-5)" style="mix-blend-mode: multiply"/>
                <path d="M958.65,245.7c.22,4.84-4.48,8.91-10.5,9.08s-11.09-3.6-11.3-8.45,4.48-8.89,10.5-9.07S958.44,240.87,958.65,245.7Z" transform="translate(147.83 -48.16)" fill="#9b6a42" style="mix-blend-mode: multiply"/>
                <path d="M958.65,245.7c.22,4.84-4.48,8.91-10.5,9.08s-11.09-3.6-11.3-8.45,4.48-8.89,10.5-9.07S958.44,240.87,958.65,245.7Z" transform="translate(147.83 -48.16)" fill="url(#radial-gradient-6)" style="mix-blend-mode: multiply"/>
                <path d="M953.76,246.24c.11,2.6-2.43,4.8-5.67,4.89s-6-1.94-6.09-4.54,2.42-4.8,5.66-4.89S953.64,243.63,953.76,246.24Z" transform="translate(147.83 -48.16)" fill="#1e1b1a" style="mix-blend-mode: multiply"/>
                <path d="M947.23,229.63c-8.43.25-15.46,4.67-18.09,10.71.1,0,14.84,6,38.67,4.08h0C967,235.89,958,229.32,947.23,229.63Z" transform="translate(147.83 -48.16)" fill="url(#linear-gradient-17)"/>
                <path d="M930.31,233.43a35.5,35.5,0,0,1,26.63-8.15S941.48,219.8,930.31,233.43Z" transform="translate(147.83 -48.16)" fill="url(#linear-gradient-18)" style="mix-blend-mode: multiply"/>
                <path d="M957.27,245.06c.06,1-1.59,1.93-3.69,2s-3.81-.74-3.87-1.79,1.61-1.93,3.7-2S957.23,244,957.27,245.06Z" transform="translate(147.83 -48.16)" fill="#fff"/>
                <path d="M954.93,248.9c0,.38-.9.71-2.07.74s-2.1-.24-2.12-.61.92-.71,2.07-.74S954.92,248.53,954.93,248.9Z" transform="translate(147.83 -48.16)" fill="#fff"/>
              </g>
              <path d="M1065,283.41s2.94-.26,4.22-1.39-2.42-1.58-2.42-1.58c5.93-14.29,4.76-30.1,4.76-30.1l-2.43-.5c-5.5,22.1-37.7,24-37.7,24-14.86-7.42-39.37-8.67-39.37-8.67l-20.08,5-20.06-5s-24.51,1.25-39.37,8.67c0,0-32.2-1.89-37.71-24l-2.42.5s-1.18,15.81,4.75,30.1c0,0-3.7.44-2.42,1.58s4.22,1.39,4.22,1.39-7.52,1.39-4.77,5.69,14.73,7,14.73,7-4.45,3.54-1.52,5.06,10.28,0,10.28,0-.37,7.21,5.32,10.76,23.64,1.26,23.64,1.26,5.89,6.2,9.93,6.33-1.26-3.93-1.26-3.93,13.82,6.2,21.3,6.08,11-3.54,11-3.54a4.71,4.71,0,0,0,8.8,0s3.49,3.41,11,3.54,21.31-6.08,21.31-6.08-5.3,4-1.26,3.93,9.92-6.33,9.92-6.33,18,2.28,23.65-1.26,5.32-10.76,5.32-10.76,7.34,1.52,10.27,0-1.52-5.06-1.52-5.06,12-2.66,14.73-7S1065,283.41,1065,283.41Z" transform="translate(147.83 -48.16)" fill="#93562c"/>
              <path d="M1065,283.41s2.94-.26,4.22-1.39-2.42-1.58-2.42-1.58c5.93-14.29,4.76-30.1,4.76-30.1l-2.43-.5c-5.5,22.1-37.7,24-37.7,24-14.86-7.42-39.37-8.67-39.37-8.67l-20.08,5-20.06-5s-24.51,1.25-39.37,8.67c0,0-32.2-1.89-37.71-24l-2.42.5s-1.18,15.81,4.75,30.1c0,0-3.7.44-2.42,1.58s4.22,1.39,4.22,1.39-7.52,1.39-4.77,5.69,14.73,7,14.73,7-4.45,3.54-1.52,5.06,10.28,0,10.28,0-.37,7.21,5.32,10.76,23.64,1.26,23.64,1.26,5.89,6.2,9.93,6.33-1.26-3.93-1.26-3.93,13.82,6.2,21.3,6.08,11-3.54,11-3.54a4.71,4.71,0,0,0,8.8,0s3.49,3.41,11,3.54,21.31-6.08,21.31-6.08-5.3,4-1.26,3.93,9.92-6.33,9.92-6.33,18,2.28,23.65-1.26,5.32-10.76,5.32-10.76,7.34,1.52,10.27,0-1.52-5.06-1.52-5.06,12-2.66,14.73-7S1065,283.41,1065,283.41Z" transform="translate(147.83 -48.16)" fill="url(#radial-gradient-7)" style="mix-blend-mode: multiply"/>
              <g>
                <path d="M976.24,222.51s.36,26.69-2.1,39.66c0,0-22.07-7.6-20.67,1.73s30.48,17.2,35.39.65" transform="translate(147.83 -48.16)" fill="#ffbca1"/>
                <path d="M961.41,271.57s4.72,8.75,12.77,8.87,13.19-12.61,13.19-12.61S980.53,279,961.41,271.57Z" transform="translate(147.83 -48.16)" fill="url(#linear-gradient-19)" style="mix-blend-mode: multiply"/>
                <path d="M961.41,271.57s4.72,8.75,12.77,8.87,13.19-12.61,13.19-12.61S980.53,279,961.41,271.57Z" transform="translate(147.83 -48.16)" fill="url(#linear-gradient-19)" style="mix-blend-mode: multiply"/>
                <path d="M961.41,271.57s4.72,8.75,12.77,8.87,13.19-12.61,13.19-12.61S980.53,279,961.41,271.57Z" transform="translate(147.83 -48.16)" fill="url(#linear-gradient-19)" style="mix-blend-mode: multiply"/>
                <path d="M976.24,222.51c.12,3.31.15,6.63.16,9.94s0,6.63-.14,10-.24,6.63-.49,9.94-.59,6.62-1.18,9.91l-.1.51-.5-.17a70,70,0,0,0-8.08-2.12,28.55,28.55,0,0,0-8.21-.62,4.82,4.82,0,0,0-3.35,1.57,3.93,3.93,0,0,0-.07,3.6,8.94,8.94,0,0,0,2.43,3.13,18.46,18.46,0,0,0,3.4,2.3,29.76,29.76,0,0,0,16.07,3.31,16.94,16.94,0,0,0,7.81-2.6,12,12,0,0,0,3-2.88,13.94,13.94,0,0,0,1.89-3.73,13.66,13.66,0,0,1-1.74,3.83,12.31,12.31,0,0,1-2.94,3,16.82,16.82,0,0,1-7.93,2.9,28.12,28.12,0,0,1-8.49-.37,28.67,28.67,0,0,1-8.06-2.74,19.64,19.64,0,0,1-3.57-2.38,9.9,9.9,0,0,1-2.7-3.46,6,6,0,0,1-.49-2.21,4.17,4.17,0,0,1,.62-2.28,4.37,4.37,0,0,1,1.85-1.44,8.5,8.5,0,0,1,2.16-.56,27.66,27.66,0,0,1,8.53.65,68.27,68.27,0,0,1,8.19,2.21l-.59.34c.61-3.23.95-6.52,1.25-9.81s.52-6.59.69-9.9Q976.12,232.46,976.24,222.51Z" transform="translate(147.83 -48.16)" fill="#e58563"/>
              </g>
              <g>
                <path d="M1020.8,246.1c.42,9.31-8.19,17.1-19.2,17.43s-20.31-7-20.73-16.27,8.19-17.1,19.2-17.43S1020.38,236.79,1020.8,246.1Z" transform="translate(147.83 -48.16)" fill="url(#radial-gradient-8)" style="mix-blend-mode: multiply"/>
                <path d="M1020.76,245.29c.4,8.86-8.21,16.31-19.23,16.62s-20.3-6.6-20.71-15.45,8.24-16.3,19.25-16.63S1020.35,236.43,1020.76,245.29Z" transform="translate(147.83 -48.16)" fill="#fff"/>
                <path d="M1020.76,245.29c.4,8.86-8.21,16.31-19.23,16.62s-20.3-6.6-20.71-15.45,8.24-16.3,19.25-16.63S1020.35,236.43,1020.76,245.29Z" transform="translate(147.83 -48.16)" fill="url(#radial-gradient-9)" style="mix-blend-mode: multiply"/>
                <path d="M1011.49,245.9c.23,4.84-4.48,8.91-10.5,9.08s-11.08-3.59-11.29-8.45,4.48-8.89,10.49-9.07S1011.29,241.06,1011.49,245.9Z" transform="translate(147.83 -48.16)" fill="#9b6a42" style="mix-blend-mode: multiply"/>
                <path d="M1011.49,245.9c.23,4.84-4.48,8.91-10.5,9.08s-11.08-3.59-11.29-8.45,4.48-8.89,10.49-9.07S1011.29,241.06,1011.49,245.9Z" transform="translate(147.83 -48.16)" fill="url(#radial-gradient-10)" style="mix-blend-mode: multiply"/>
                <path d="M1006.6,246.44c.11,2.6-2.42,4.8-5.66,4.89s-6-1.94-6.1-4.54,2.43-4.8,5.67-4.89S1006.48,243.83,1006.6,246.44Z" transform="translate(147.83 -48.16)" fill="#1e1b1a" style="mix-blend-mode: multiply"/>
                <path d="M1000.07,229.83c-8.42.25-15.46,4.67-18.09,10.7.11.05,14.86,6,38.68,4.09h0C1019.86,236.09,1010.81,229.52,1000.07,229.83Z" transform="translate(147.83 -48.16)" fill="url(#linear-gradient-22)"/>
                <path d="M1020.11,233.63a35.51,35.51,0,0,0-26.64-8.15S1008.93,220,1020.11,233.63Z" transform="translate(147.83 -48.16)" fill="url(#linear-gradient-23)" style="mix-blend-mode: multiply"/>
                <path d="M1010.12,245.26c.06,1-1.59,1.93-3.69,2s-3.82-.74-3.88-1.78,1.62-1.94,3.71-2S1010.07,244.21,1010.12,245.26Z" transform="translate(147.83 -48.16)" fill="#fff"/>
                <path d="M1007.78,249.1c0,.38-.9.71-2.08.73s-2.1-.23-2.11-.6.91-.71,2.07-.74S1007.76,248.73,1007.78,249.1Z" transform="translate(147.83 -48.16)" fill="#fff"/>
              </g>
              <g style="mix-blend-mode: multiply">
                <path d="M974.39,285.73a53.3,53.3,0,0,1,8.39-5.36,48.82,48.82,0,0,1,9.28-3.74,30.88,30.88,0,0,1,9.94-1.28,21.94,21.94,0,0,1,5,.8,18.65,18.65,0,0,1,4.54,2.07,21.63,21.63,0,0,0-9.52-2.1,30.57,30.57,0,0,0-4.87.4,37.47,37.47,0,0,0-4.78,1.07,62.8,62.8,0,0,0-9.21,3.47q-2.25,1-4.42,2.21C977.23,284,975.81,284.87,974.39,285.73Z" transform="translate(147.83 -48.16)" fill="#ccb6ae"/>
              </g>
              <path d="M929.14,227.73a45.09,45.09,0,0,1,28.13-6.58s.13-8.86-3.86-9.11-.57,2.15-.57,2.15-9.44-3.07-12.07-2.17,2.86,2.17,2.86,2.17-11.76.76-13.32,2.28,4.07.38,4.07.38S919.77,220.9,929.14,227.73Z" transform="translate(147.83 -48.16)" fill="#93562c"/>
              <path d="M1020.27,227.23a45,45,0,0,0-28.13-6.58s-.13-8.86,3.87-9.11.56,2.15.56,2.15,9.45-3.08,12.08-2.17-2.86,2.17-2.86,2.17,11.75.76,13.31,2.27-4.07.39-4.07.39S1029.65,220.39,1020.27,227.23Z" transform="translate(147.83 -48.16)" fill="#93562c"/>
            </g>
            <ellipse cx="1081.66" cy="315.84" rx="7.19" ry="4.84" fill="#eaa086"/>
            <path d="M936.71,364c0,1.07-1.29,1.94-2.88,1.94S931,365.07,931,364s1.28-1.94,2.87-1.94S936.71,362.93,936.71,364Z" transform="translate(147.83 -48.16)" fill="#e08d73"/>
            <path d="M1007.52,364c0,2.67-3.22,4.84-7.19,4.84s-7.19-2.17-7.19-4.84,3.22-4.84,7.19-4.84S1007.52,361.33,1007.52,364Z" transform="translate(147.83 -48.16)" fill="#eaa086"/>
            <path d="M1003.2,364c0,1.07-1.28,1.94-2.87,1.94s-2.88-.87-2.88-1.94,1.29-1.94,2.88-1.94S1003.2,362.93,1003.2,364Z" transform="translate(147.83 -48.16)" fill="#e08d73"/>
            <path d="M931,374.61s46.25-3,72.24-1.21C1003.2,373.4,950.61,371,931,374.61Z" transform="translate(147.83 -48.16)" fill="url(#linear-gradient-24)" style="mix-blend-mode: multiply"/>
            <path d="M957.55,419.22s13.42-1,20.85,2.1C978.4,421.32,970.49,414.87,957.55,419.22Z" transform="translate(147.83 -48.16)" fill="url(#linear-gradient-25)" style="mix-blend-mode: multiply"/>
            <path d="M961.38,454.05s.48,8.14,3.35,14.56l9.11.94-8.15-1.78s-1.67-10.33-1.43-13.72" transform="translate(147.83 -48.16)" fill="#bc978a" opacity="0.4" style="mix-blend-mode: multiply"/>
            <path d="M915.18,332.79s-8.19,1.79-14.66,10.36S871.87,384,877.28,387c12.45,6.85,37.9-32.76,37.9-32.76" transform="translate(147.83 -48.16)" fill="#ffbca1"/>
            <path d="M915.18,332.79s-8.19,1.79-14.66,10.36S871.87,384,877.28,387c12.45,6.85,37.9-32.76,37.9-32.76" transform="translate(147.83 -48.16)" fill="url(#linear-gradient-26)" style="mix-blend-mode: multiply"/>
            <path d="M884.58,386.94s-4.26,2.61-13.91-1.5S804,346.76,804,346.76l6.4-3.44s62.71,28.83,72.19,33.27S884.58,386.94,884.58,386.94Z" transform="translate(147.83 -48.16)" fill="#ffbca1"/>
            <path d="M810.36,343.32s-16.65-4.9-30.73-.54c-9.45,2.92,5.87,2.5,5.87,2.5s-18.69,6.13-19,8.71,19-5.16,19-5.16-18.27,7.26-14.2,8.47S789.42,350,789.42,350s-11,8.55-8.06,8.55,12.17-7.83,12.17-7.83-5.46,7.55-2.46,7,8.21-7.39,8.21-7.39a16.27,16.27,0,0,0,8.51-1.93C812,346,810.36,343.32,810.36,343.32Z" transform="translate(147.83 -48.16)" fill="#ffbca1"/>
            <path d="M791.7,344.41s6.47.12,9.62-1.39C801.32,343,799.61,346,791.7,344.41Z" transform="translate(147.83 -48.16)" fill="url(#linear-gradient-27)" style="mix-blend-mode: multiply"/>
            <path d="M1020.82,332.79s8.19,1.79,14.66,10.36S1064.13,384,1058.72,387c-12.45,6.85-37.9-32.76-37.9-32.76" transform="translate(147.83 -48.16)" fill="#ffbca1"/>
            <path d="M1020.82,332.79s8.19,1.79,14.66,10.36S1064.13,384,1058.72,387c-12.45,6.85-37.9-32.76-37.9-32.76" transform="translate(147.83 -48.16)" fill="url(#linear-gradient-28)" style="mix-blend-mode: multiply"/>
            <path d="M1051.42,386.94s4.26,2.61,13.91-1.5S1132,346.76,1132,346.76l-6.4-3.44s-62.71,28.83-72.19,33.27S1051.42,386.94,1051.42,386.94Z" transform="translate(147.83 -48.16)" fill="#ffbca1"/>
            <path d="M1125.64,343.32s16.65-4.9,30.73-.54c9.45,2.92-5.87,2.5-5.87,2.5s18.69,6.13,19,8.71-19-5.16-19-5.16,18.27,7.26,14.2,8.47-18.12-7.34-18.12-7.34,11,8.55,8.06,8.55-12.17-7.83-12.17-7.83,5.46,7.55,2.46,7-8.21-7.39-8.21-7.39a16.27,16.27,0,0,1-8.51-1.93C1124,346,1125.64,343.32,1125.64,343.32Z" transform="translate(147.83 -48.16)" fill="#ffbca1"/>
            <path d="M1144.3,344.41s-6.47.12-9.62-1.39C1134.68,343,1136.39,346,1144.3,344.41Z" transform="translate(147.83 -48.16)" fill="url(#linear-gradient-29)" style="mix-blend-mode: multiply"/>
          </g>
          <g>
            <path d="M876.89,754.18q-40.2-19.92-63.3-54.64T790.48,622q0-42.5,22.85-76.45t63.29-53.12q40.44-19.15,90.86-19.16,49.89,0,88,18.78t59.09,52.55q21,33.78,21,77.4,0,44.4-21.54,78.92t-59.87,53.88Q1015.79,774.1,967,774.1,917.06,774.1,876.89,754.18ZM992.7,679.81a62.32,62.32,0,0,0,20-23.9,73.64,73.64,0,0,0,7.35-32.82q0-28.46-15-46.29T966.43,559A58.22,58.22,0,0,0,936,567.13a59.14,59.14,0,0,0-21.54,22.19,63.26,63.26,0,0,0-7.87,31.49,77.42,77.42,0,0,0,7.61,34.53,60.78,60.78,0,0,0,21,24.47,52.37,52.37,0,0,0,29.68,8.92A47.13,47.13,0,0,0,992.7,679.81Z" transform="translate(147.83 -48.16)" fill="#b77b3e"/>
            <path d="M876.89,746q-40.2-19.92-63.3-54.63t-23.11-77.59q0-42.5,22.85-76.46t63.29-53.11Q917.06,465,967.48,465q49.89,0,88,18.78t59.09,52.55q21,33.76,21,77.4,0,44.38-21.54,78.91t-59.87,53.88Q1015.79,765.9,967,765.9,917.06,765.9,876.89,746ZM992.7,671.62a62.28,62.28,0,0,0,20-23.91,73.61,73.61,0,0,0,7.35-32.82q0-28.46-15-46.28t-38.61-17.84A58.31,58.31,0,0,0,936,558.93a59.09,59.09,0,0,0-21.54,22.2,63.26,63.26,0,0,0-7.87,31.49,77.45,77.45,0,0,0,7.61,34.53,60.78,60.78,0,0,0,21,24.47,52.43,52.43,0,0,0,29.68,8.91A47.19,47.19,0,0,0,992.7,671.62Z" transform="translate(147.83 -48.16)" fill="#f7bd77"/>
            <g style="mix-blend-mode: multiply">
              <path d="M876.89,746q-40.2-19.92-63.3-54.63t-23.11-77.59q0-42.5,22.85-76.46t63.29-53.11Q917.06,465,967.48,465q49.89,0,88,18.78t59.09,52.55q21,33.76,21,77.4,0,44.38-21.54,78.91t-59.87,53.88Q1015.79,765.9,967,765.9,917.06,765.9,876.89,746ZM992.7,671.62a62.28,62.28,0,0,0,20-23.91,73.61,73.61,0,0,0,7.35-32.82q0-28.46-15-46.28t-38.61-17.84A58.31,58.31,0,0,0,936,558.93a59.09,59.09,0,0,0-21.54,22.2,63.26,63.26,0,0,0-7.87,31.49,77.45,77.45,0,0,0,7.61,34.53,60.78,60.78,0,0,0,21,24.47,52.43,52.43,0,0,0,29.68,8.91A47.19,47.19,0,0,0,992.7,671.62Z" transform="translate(147.83 -48.16)" fill="url(#radial-gradient-11)"/>
            </g>
            <g style="mix-blend-mode: soft-light">
              <path d="M876.89,746q-40.2-19.92-63.3-54.63t-23.11-77.59q0-42.5,22.85-76.46t63.29-53.11Q917.06,465,967.48,465q49.89,0,88,18.78t59.09,52.55q21,33.76,21,77.4,0,44.38-21.54,78.91t-59.87,53.88Q1015.79,765.9,967,765.9,917.06,765.9,876.89,746ZM992.7,671.62a62.28,62.28,0,0,0,20-23.91,73.61,73.61,0,0,0,7.35-32.82q0-28.46-15-46.28t-38.61-17.84A58.31,58.31,0,0,0,936,558.93a59.09,59.09,0,0,0-21.54,22.2,63.26,63.26,0,0,0-7.87,31.49,77.45,77.45,0,0,0,7.61,34.53,60.78,60.78,0,0,0,21,24.47,52.43,52.43,0,0,0,29.68,8.91A47.19,47.19,0,0,0,992.7,671.62Z" transform="translate(147.83 -48.16)" fill="url(#radial-gradient-12)"/>
            </g>
          </g>
        </g>
      </g>
      <g id="WATER_UP" data-name="WATER UP">
        <path d="M2000,900V531.14s-82.67,10.94-173.33,49.25-117.34,38.3-216,27.36-208-54.72-296-24.63-159.33,19.15-243.67,8.21-207,5.47-316.33,30.09-184-8.2-256-8.2-165.34,30.09-237.34,32.83S58.67,632.37,0,605V900Z" transform="translate(147.83 -48.16)" fill="url(#linear-gradient-30)" style="mix-blend-mode: multiply"/>
        <path d="M2000,900V531.14s-82.67,10.94-173.33,49.25-117.34,38.3-216,27.36-208-54.72-296-24.63-159.33,19.15-243.67,8.21-207,5.47-316.33,30.09-184-8.2-256-8.2-165.34,30.09-237.34,32.83S58.67,632.37,0,605V900Z" transform="translate(147.83 -48.16)" fill="url(#linear-gradient-31)" style="mix-blend-mode: multiply"/>
        <path d="M2000,900V531.14s-82.67,10.94-173.33,49.25-117.34,38.3-216,27.36-208-54.72-296-24.63-159.33,19.15-243.67,8.21-207,5.47-316.33,30.09-184-8.2-256-8.2-165.34,30.09-237.34,32.83S58.67,632.37,0,605V900Z" transform="translate(147.83 -48.16)" fill="url(#linear-gradient-31)" style="mix-blend-mode: color-burn"/>
        <path d="M258.07,653.78c72.8-2.74,167.17-32.84,240-32.84s148.3,32.84,258.84,8.21,234.57-41,319.84-30.09,157.39,21.88,246.37-8.21,199.51,13.68,299.27,24.62,126.73,10.95,218.4-27.35c67.57-28.24,130.7-41.6,159.25-46.67V531.14s-82.67,10.94-173.33,49.25-117.34,38.3-216,27.36-208-54.72-296-24.63-159.33,19.15-243.67,8.21-207,5.47-316.33,30.09-184-8.2-256-8.2-165.34,30.09-237.34,32.83S58.67,632.37,0,605v10.42C61.88,641.16,187.69,656.42,258.07,653.78Z" transform="translate(147.83 -48.16)" fill="url(#linear-gradient-33)" style="mix-blend-mode: multiply"/>
        <path d="M336.89,612.14c0,8.27-9.95,15-22.22,15s-22.22-6.7-22.22-15,9.95-15,22.22-15S336.89,603.88,336.89,612.14Z" transform="translate(147.83 -48.16)" fill="url(#radial-gradient-13)" style="mix-blend-mode: multiply"/>
        <path d="M874.51,569.53c0,8.26-10,15-22.22,15s-22.22-6.71-22.22-15,9.95-15,22.22-15S874.51,561.26,874.51,569.53Z" transform="translate(147.83 -48.16)" fill="url(#radial-gradient-14)" style="mix-blend-mode: multiply"/>
        <path d="M1150.39,646.86c0,8.27-10,15-22.22,15s-22.22-6.7-22.22-15,10-15,22.22-15S1150.39,638.6,1150.39,646.86Z" transform="translate(147.83 -48.16)" fill="url(#radial-gradient-15)" style="mix-blend-mode: multiply"/>
        <path d="M1650.67,580.62c0,8.27-10,15-22.22,15s-22.23-6.7-22.23-15,10-15,22.23-15S1650.67,572.35,1650.67,580.62Z" transform="translate(147.83 -48.16)" fill="url(#radial-gradient-16)" style="mix-blend-mode: multiply"/>
        <path d="M1877,514.38c0,5.16-6.22,9.35-13.89,9.35s-13.89-4.19-13.89-9.35,6.22-9.36,13.89-9.36S1877,509.21,1877,514.38Z" transform="translate(147.83 -48.16)" fill="url(#radial-gradient-17)" style="mix-blend-mode: multiply"/>
        <path d="M229.64,595.59c0,4.74-5.71,8.59-12.75,8.59s-12.75-3.85-12.75-8.59,5.71-8.59,12.75-8.59S229.64,590.84,229.64,595.59Z" transform="translate(147.83 -48.16)" fill="url(#radial-gradient-18)" style="mix-blend-mode: multiply"/>
        <path d="M1311.54,527.9c0,4.74-5.71,8.59-12.76,8.59S1286,532.64,1286,527.9s5.71-8.59,12.75-8.59S1311.54,523.16,1311.54,527.9Z" transform="translate(147.83 -48.16)" fill="url(#radial-gradient-19)" style="mix-blend-mode: multiply"/>
      </g>
      <g id="FISH">
        <path d="M123.44,782.54s-35.81-8.13-43.72,6.09,43.72-3,43.72-3l10.25,4.83,2.94-10.18Z" transform="translate(147.83 -48.16)" fill="#a1d3d6" opacity="0.4" style="mix-blend-mode: multiply"/>
        <g>
          <path d="M342.4,822.14s-63.34-14.37-77.34,10.78,77.34-5.39,77.34-5.39l18.13,8.53,5.2-18Z" transform="translate(147.83 -48.16)" fill="#a1d3d6" opacity="0.3" style="mix-blend-mode: multiply"/>
          <path d="M404.83,790.74s-48.27-19.4-66.42-.41,65,4.83,65,4.83l12.65,9.19,9-14.18Z" transform="translate(147.83 -48.16)" fill="#a1d3d6" opacity="0.3" style="mix-blend-mode: multiply"/>
        </g>
        <path d="M748.83,805.62s47.57-20.17,66.38-1.47-64.8,5.87-64.8,5.87l-12.33,9.38-9.52-14Z" transform="translate(147.83 -48.16)" fill="#a1d3d6" opacity="0.5" style="mix-blend-mode: multiply"/>
        <path d="M1710.84,711.27s53.27-12.08,65,9.07-65-4.54-65-4.54L1695.59,723l-4.37-15.14Z" transform="translate(147.83 -48.16)" fill="#a1d3d6" opacity="0.6" style="mix-blend-mode: multiply"/>
        <path d="M1614.83,826.37s31.1-7.06,38,5.29-38-2.64-38-2.64l-8.91,4.19-2.55-8.85Z" transform="translate(147.83 -48.16)" fill="#a1d3d6" opacity="0.2" style="mix-blend-mode: multiply"/>
        <path d="M1888.46,771.22s31.11-7.06,38,5.29-38-2.65-38-2.65l-8.9,4.19-2.56-8.84Z" transform="translate(147.83 -48.16)" fill="#a1d3d6" opacity="0.2" style="mix-blend-mode: multiply"/>
        <path d="M1888.46,771.22s31.11-7.06,38,5.29-38-2.65-38-2.65l-8.9,4.19-2.56-8.84Z" transform="translate(147.83 -48.16)" fill="#a1d3d6" opacity="0.2" style="mix-blend-mode: multiply"/>
      </g>
    </g>
  </g>
</svg>
