<?xml version="1.0" encoding="UTF-8" standalone="no"?>
<svg
   xmlns:dc="http://purl.org/dc/elements/1.1/"
   xmlns:cc="http://creativecommons.org/ns#"
   xmlns:rdf="http://www.w3.org/1999/02/22-rdf-syntax-ns#"
   xmlns:svg="http://www.w3.org/2000/svg"
   xmlns="http://www.w3.org/2000/svg"
   xmlns:sodipodi="http://sodipodi.sourceforge.net/DTD/sodipodi-0.dtd"
   xmlns:inkscape="http://www.inkscape.org/namespaces/inkscape"
   height="512"
   viewBox="0 0 58 42"
   width="512"
   version="1.1"
   id="svg46"
   sodipodi:docname="right-arrow.svg"
   inkscape:version="1.0.1 (3bc2e813f5, 2020-09-07)">
  <metadata
     id="metadata52">
    <rdf:RDF>
      <cc:Work
         rdf:about="">
        <dc:format>image/svg+xml</dc:format>
        <dc:type
           rdf:resource="http://purl.org/dc/dcmitype/StillImage" />
      </cc:Work>
    </rdf:RDF>
  </metadata>
  <defs
     id="defs50" />
  <sodipodi:namedview
     pagecolor="#ffffff"
     bordercolor="#666666"
     borderopacity="1"
     objecttolerance="10"
     gridtolerance="10"
     guidetolerance="10"
     inkscape:pageopacity="0"
     inkscape:pageshadow="2"
     inkscape:window-width="1366"
     inkscape:window-height="705"
     id="namedview48"
     showgrid="false"
     inkscape:zoom="1.0507812"
     inkscape:cx="256"
     inkscape:cy="217.93309"
     inkscape:window-x="-8"
     inkscape:window-y="-8"
     inkscape:window-maximized="1"
     inkscape:current-layer="svg46" />
  <g
     id="003---Right-Arrow"
     fill="none"
     transform="rotate(180,28.772973,21)">
    <path
       id="Shape"
       d="M 57.24,20.28 36,0 31.49,2.71 C 31.182953,2.8867529 30.995506,3.2157412 31,3.57 v 8.79 L 5,10 0.49,12.71 C 0.18295296,12.886753 -0.0044939,13.215741 0,13.57 v 14.86 c -0.0044939,0.354259 0.18295296,0.683247 0.49,0.86 L 5,32 31,29.64 v 8.79 c -0.0045,0.354259 0.182953,0.683247 0.49,0.86 L 36,42 57.24,21.72 c 0.195552,-0.188483 0.306026,-0.4484 0.306026,-0.72 0,-0.2716 -0.110474,-0.531517 -0.306026,-0.72 z"
       fill="#26b99a" />
    <g
       fill="#14a085"
       id="g39">
      <path
         id="path33"
         d="M 36.000027,0 36,11.72 c 0.0021,0.28105 -0.115654,0.549681 -0.323707,0.738646 C 35.468241,12.647612 35.189555,12.739024 34.91,12.71 L 31,12.36 V 3.57 C 30.9955,3.2157412 31.182953,2.8867529 31.49,2.71 Z" />
      <path
         id="path35"
         d="M 36,30.28 36.000027,42 31.49,39.29 C 31.182953,39.113247 30.995506,38.784259 31,38.43 v -8.79 l 3.91,-0.35 c 0.279556,-0.02902 0.558241,0.06239 0.766294,0.251354 C 35.884346,29.730319 36.002072,29.99895 36,30.28 Z" />
      <path
         id="path37"
         d="M 5,10 V 32 L 0.49,29.29 C 0.18295296,29.113247 -0.0044939,28.784259 0,28.43 V 13.57 c -0.0044939,-0.354259 0.18295296,-0.683247 0.49,-0.86 z" />
    </g>
    <path
       id="path41"
       d="m 34,17.926 c -1.344,0 4.665,0.173 -16.037,-0.593 C 17.412163,17.312918 16.981444,16.85089 17,16.3 17.0072,16.033978 17.12124,15.782065 17.316338,15.601077 17.511436,15.420089 17.771184,15.325268 18.037,15.338 l 16,0.592 c 0.552285,0.01022 0.991717,0.466215 0.9815,1.0185 C 35.008283,17.500785 34.552285,17.940217 34,17.93 Z"
       fill="#81ccb8" />
    <path
       id="path43"
       d="M 14,17.185 C 13.6,17.185 15.414,17.238 8.963,17 8.6977212,16.990366 8.4471578,16.875653 8.2665223,16.681137 8.0858869,16.486621 7.9900034,16.228265 8,15.963 8.0047443,15.696056 8.117976,15.44255 8.3136153,15.260871 8.5092547,15.079193 8.7704348,14.985004 9.037,15 l 5,0.186 c 0.357266,0.0066 0.683867,0.203316 0.856775,0.516022 0.172909,0.312705 0.165857,0.693903 -0.0185,0.999999 C 14.690919,17.008118 14.357266,17.192609 14,17.186 Z"
       fill="#81ccb8" />
  </g>
</svg>
